<svg xmlns="http://www.w3.org/2000/svg" viewBox="0 0 348.79 71.85">
    <defs>
        <style>.cls-1{fill:#fff;}.cls-2{fill:#37b5ae;}</style>
    </defs>
    <g id="Layer_2" data-name="Layer 2">
        <g id="Layer_1-2" data-name="Layer 1">
            <path class="cls-2"
                d="M23.26.43a3.46,3.46,0,0,1,3.39,0L48.12,12.14A3.27,3.27,0,0,1,49.86,15l0,33.5a3.29,3.29,0,0,1-2,3.2l-21.27,9a3.5,3.5,0,0,1-3.27,0l-21.27-9a3.32,3.32,0,0,1-2-3.21L.05,15A3.3,3.3,0,0,1,1.79,12.1Z" />
            <path class="cls-1"
                d="M28.84,50.61l12.58-4.52a3.09,3.09,0,0,0,2-2.9V18.45a3.11,3.11,0,0,0-1.93-2.86L28.85,10.47a.34.34,0,0,0-.48.32v39.5A.34.34,0,0,0,28.84,50.61Z" />
            <path class="cls-1"
                d="M21.07,10.47,8.39,15.59a3.1,3.1,0,0,0-1.93,2.86V43.19a3.07,3.07,0,0,0,2,2.9l12.58,4.52a.34.34,0,0,0,.46-.32V10.79A.34.34,0,0,0,21.07,10.47Zm-12,11c0-.32.27-.51.59-.58l8.4-1.73c.32-.07.6.26.6.57v4a.63.63,0,0,1-.6.58l-8.4.95a.57.57,0,0,1-.59-.58Zm9.64,21.93a.56.56,0,0,1-.59.58L9.77,42.7a.63.63,0,0,1-.6-.58V38.88a.59.59,0,0,1,.6-.58l8.4.36a.59.59,0,0,1,.59.57Zm0-9.68a.58.58,0,0,1-.59.58l-8.4-.26a.6.6,0,0,1-.6-.57V30.24a.61.61,0,0,1,.6-.58l8.4-.68a.58.58,0,0,1,.59.58Z" />
            <path class="cls-1"
                d="M176,58.77l8.65,10v-10h1.78V71.68h-1.61l-8.57-9.94v9.94h-1.78V58.77Z" />
            <path class="cls-1"
                d="M204.54,58.77v1.65h-5.47v3.93h5.28V66h-5.28v4h5.64v1.67h-7.49V58.77Z" />
            <path class="cls-1" d="M215.69,58.77l3.92,9.06,3.82-9.06h1.84l-5.45,13h-.42l-5.56-13Z" />
            <path class="cls-1"
                d="M242,58.77v1.65h-5.47v3.93h5.28V66h-5.28v4h5.64v1.67h-7.49V58.77Z" />
            <path class="cls-1"
                d="M256,58.77a3.94,3.94,0,0,1,2.84,1,3.41,3.41,0,0,1-1.08,5.75,6,6,0,0,1,1,.79,17.86,17.86,0,0,1,1.39,1.9l2.27,3.45h-2.19l-2-3.18a8.75,8.75,0,0,0-1.5-1.87,2.3,2.3,0,0,0-1.52-.57h-.84v5.62h-1.85V58.77Zm-1.71,5.66h1.19a2.89,2.89,0,0,0,2-.53,2,2,0,0,0,.57-1.54,1.86,1.86,0,0,0-.55-1.45,2.27,2.27,0,0,0-1.61-.51H254.3Z" />
            <path class="cls-1"
                d="M288.54,58.77a4,4,0,0,1,2.85,1,3.42,3.42,0,0,1,1.07,2.57,3.19,3.19,0,0,1-2.16,3.18,5.68,5.68,0,0,1,1,.79,19.48,19.48,0,0,1,1.39,1.9l2.27,3.45h-2.2l-2-3.18a9.06,9.06,0,0,0-1.51-1.87,2.26,2.26,0,0,0-1.52-.57h-.83v5.62H285V58.77Zm-1.7,5.66H288a2.9,2.9,0,0,0,2-.53,2,2,0,0,0,.57-1.54,1.9,1.9,0,0,0-.55-1.45,2.29,2.29,0,0,0-1.61-.51h-1.57Z" />
            <path class="cls-1"
                d="M311.63,58.77v1.65h-5.47v3.93h5.28V66h-5.28v4h5.64v1.67h-7.49V58.77Z" />
            <path class="cls-1"
                d="M328.38,59.51v2.1a5.28,5.28,0,0,0-1.41-1,3.76,3.76,0,0,0-1.61-.35,2.13,2.13,0,0,0-1.4.42,1.36,1.36,0,0,0-.5,1.08,2.56,2.56,0,0,0,1.64,2.18,15.46,15.46,0,0,1,2.72,1.85,3.39,3.39,0,0,1,1.08,2.69,3.12,3.12,0,0,1-1,2.41,3.81,3.81,0,0,1-2.7,1,5.59,5.59,0,0,1-1.84-.31,6.61,6.61,0,0,1-1.65-.89V68.31a5.09,5.09,0,0,0,1.58,1.4,3.85,3.85,0,0,0,1.91.49,2,2,0,0,0,1.35-.47A1.57,1.57,0,0,0,327,68.5a1.86,1.86,0,0,0-.58-1.4,11.84,11.84,0,0,0-2.15-1.5,6.5,6.5,0,0,1-2.13-1.78,3.51,3.51,0,0,1-.57-2,2.88,2.88,0,0,1,1.08-2.3,4,4,0,0,1,2.72-.92,5.39,5.39,0,0,1,1.55.23A5.63,5.63,0,0,1,328.38,59.51Z" />
            <path class="cls-1" d="M348.79,58.77V60.4h-4.51V71.68h-1.85V60.4H338V58.77Z" />
            <path class="cls-1" d="M88.91,50.25H83V34H68V50.25H62.09V12.55H68V28.66H83V12.55h5.89Z" />
            <path class="cls-1" d="M96.79,50.25V12.55h5.89v37.7Z" />
            <path class="cls-1"
                d="M136.87,50.25h-6.65l-9.5-12.75H116.4V50.25h-5.89V12.55h11.18c5,0,7.87,2,9.39,3.76a12.8,12.8,0,0,1,3,8.74,12.78,12.78,0,0,1-3,8.69,10.51,10.51,0,0,1-4.37,2.89Zm-15.18-18a6.94,6.94,0,0,0,5.43-2,7.5,7.5,0,0,0,1.68-5.13,7.55,7.55,0,0,0-1.68-5.18c-1.17-1.32-3-2-5.43-2H116.4V32.21Z" />
            <path class="cls-1"
                d="M147.39,27.89h13.77v5.34H147.39V44.91h16.72v5.34H141.5V12.55h22.61v5.29H147.39Z" />
            <path class="cls-1"
                d="M191,42.68A10.89,10.89,0,0,1,182.55,50a11,11,0,0,1-2.29.21,12.25,12.25,0,0,1-4.47-.82,15,15,0,0,1-6.25-4.82L174.22,41a8.37,8.37,0,0,0,3.71,2.95,5.78,5.78,0,0,0,3.45.3,5,5,0,0,0,4-3.15c.51-1.73-.66-3.25-1.72-4.27-1.68-1.57-4.42-4.26-4.63-4.47L174.37,28a10.85,10.85,0,0,1-2.9-4.53,8.17,8.17,0,0,1-.1-4.77,8.63,8.63,0,0,1,2.8-4.22,9.81,9.81,0,0,1,4.52-2.13,9.92,9.92,0,0,1,5.59.41,12.71,12.71,0,0,1,5.13,3.81l-4.63,3.7c-1.93-2.33-3.91-2.33-5-2.13a3.48,3.48,0,0,0-2.75,2.18c-.2.72-.15,1.88,1.43,3.41l6.29,6c.92.92,2,2,2.85,2.75a11.26,11.26,0,0,1,3.3,4.92A8.92,8.92,0,0,1,191,42.68Z" />
            <path class="cls-1"
                d="M203,27.89h13.77v5.34H203V44.91h16.72v5.34H197.13V12.55h22.61v5.29H203Z" />
            <path class="cls-1"
                d="M253.07,50.25h-6.66l-9.5-12.75h-4.32V50.25H226.7V12.55h11.18c5,0,7.87,2,9.39,3.76a12.8,12.8,0,0,1,3,8.74,12.78,12.78,0,0,1-3,8.69,10.54,10.54,0,0,1-4.36,2.89Zm-15.19-18a6.94,6.94,0,0,0,5.43-2A7.5,7.5,0,0,0,245,25.05a7.55,7.55,0,0,0-1.68-5.18c-1.17-1.32-3-2-5.43-2h-5.29V32.21Z" />
            <path class="cls-1" d="M269.73,37.39l9.91-24.84H286L269.88,51.92,252.61,12.55h6.5Z" />
            <path class="cls-1"
                d="M297.17,27.89h13.76v5.34H297.17V44.91h16.71v5.34H291.27V12.55h22.61v5.29H297.17Z" />
            <path class="cls-1"
                d="M347.21,50.25h-6.66l-9.5-12.75h-4.32V50.25h-5.89V12.55H332c5,0,7.87,2,9.4,3.76a12.79,12.79,0,0,1,3,8.74,12.77,12.77,0,0,1-3,8.69,10.65,10.65,0,0,1-4.37,2.89ZM332,32.21a6.92,6.92,0,0,0,5.43-2,7.45,7.45,0,0,0,1.68-5.13,7.5,7.5,0,0,0-1.68-5.18c-1.17-1.32-3-2-5.43-2h-5.29V32.21Z" />
        </g>
    </g>
</svg>