<svg xmlns="http://www.w3.org/2000/svg" xmlns:xlink="http://www.w3.org/1999/xlink" width="500" zoomAndPan="magnify" viewBox="0 0 375 374.999991" height="500" preserveAspectRatio="xMidYMid meet" version="1.0"><defs><g/><clipPath id="29f6af4281"><path d="M 37.5 37.5 L 337.5 37.5 L 337.5 337.5 L 37.5 337.5 Z M 37.5 37.5 " clip-rule="nonzero"/></clipPath><clipPath id="54480771ed"><path d="M 187.5 37.5 C 104.65625 37.5 37.5 104.65625 37.5 187.5 C 37.5 270.34375 104.65625 337.5 187.5 337.5 C 270.34375 337.5 337.5 270.34375 337.5 187.5 C 337.5 104.65625 270.34375 37.5 187.5 37.5 Z M 187.5 37.5 " clip-rule="nonzero"/></clipPath><clipPath id="55bb64f1be"><path d="M 54.40625 54.40625 L 320.585938 54.40625 L 320.585938 320.585938 L 54.40625 320.585938 Z M 54.40625 54.40625 " clip-rule="nonzero"/></clipPath><clipPath id="ffda9a77ad"><path d="M 187.496094 54.40625 C 113.992188 54.40625 54.40625 113.992188 54.40625 187.496094 C 54.40625 261 113.992188 320.585938 187.496094 320.585938 C 261 320.585938 320.585938 261 320.585938 187.496094 C 320.585938 113.992188 261 54.40625 187.496094 54.40625 Z M 187.496094 54.40625 " clip-rule="nonzero"/></clipPath><clipPath id="f9e94e6359"><path d="M 114.476562 112.734375 L 280.976562 112.734375 L 280.976562 260.484375 L 114.476562 260.484375 Z M 114.476562 112.734375 " clip-rule="nonzero"/></clipPath><clipPath id="7770488360"><path d="M 93 208 L 227 208 L 227 238 L 93 238 Z M 93 208 " clip-rule="nonzero"/></clipPath><clipPath id="eafdeaf75d"><path d="M 105.152344 262.472656 L 93.816406 210.65625 L 215.066406 184.132812 L 226.398438 235.953125 Z M 105.152344 262.472656 " clip-rule="nonzero"/></clipPath><clipPath id="3914b8e46f"><path d="M 99.78125 237.929688 L 93.816406 210.65625 L 220.378906 208.691406 L 226.347656 235.964844 Z M 99.78125 237.929688 " clip-rule="nonzero"/></clipPath></defs><rect x="-37.5" width="450" fill="#ffffff" y="-37.499999" height="449.999989" fill-opacity="1"/><rect x="-37.5" width="450" fill="#ffffff" y="-37.499999" height="449.999989" fill-opacity="1"/><g clip-path="url(#29f6af4281)"><g clip-path="url(#54480771ed)"><path fill="#000000" d="M 37.5 37.5 L 337.5 37.5 L 337.5 337.5 L 37.5 337.5 Z M 37.5 37.5 " fill-opacity="1" fill-rule="nonzero"/></g></g><g clip-path="url(#55bb64f1be)"><g clip-path="url(#ffda9a77ad)"><path stroke-linecap="butt" transform="matrix(0.75, 0, 0, 0.75, 54.407663, 54.407658)" fill="none" stroke-linejoin="miter" d="M 177.451253 -0.00187737 C 79.446039 -0.00187737 -0.00188337 79.446045 -0.00188337 177.451259 C -0.00188337 275.456474 79.446039 354.904396 177.451253 354.904396 C 275.456468 354.904396 354.90439 275.456474 354.90439 177.451259 C 354.90439 79.446045 275.456468 -0.00187737 177.451253 -0.00187737 Z M 177.451253 -0.00187737 " stroke="#ffffff" stroke-width="12" stroke-opacity="1" stroke-miterlimit="4"/></g></g><g clip-path="url(#f9e94e6359)"><path fill="#ffffff" d="M 229.15625 162.066406 L 217.53125 162.183594 L 209.269531 162.261719 L 203.171875 162.261719 L 194.441406 140.613281 L 209.050781 140.613281 L 229.59375 140.410156 C 239.050781 140.316406 243.976562 144.136719 244.042969 150.828125 L 244.050781 151.175781 C 244.121094 158.394531 238.777344 161.96875 229.15625 162.066406 Z M 280.910156 201.332031 C 280.742188 184.609375 271.855469 176.246094 257.949219 171.460938 C 268.007812 166.605469 275.421875 158.078125 275.28125 143.824219 L 275.277344 143.472656 C 275.191406 135.023438 272.355469 128.539062 267.738281 123.65625 C 260.984375 116.507812 250.835938 112.734375 236.492188 112.878906 L 177.964844 113.464844 L 188.320312 135.359375 L 161.824219 135.625 L 114.484375 260.199219 L 147.738281 259.863281 L 155.671875 237.785156 L 164.699219 211.113281 L 174.058594 184.851562 L 181.023438 163.199219 L 181.167969 163.199219 L 189.738281 186.089844 L 208.835938 186.089844 L 233.636719 185.957031 C 244.234375 185.855469 249.167969 190.207031 249.234375 196.894531 L 249.238281 197.246094 C 249.3125 204.464844 243.808594 208.566406 234.1875 208.664062 L 208.835938 208.824219 L 202.035156 208.867188 L 196.335938 208.867188 L 206.957031 236.675781 L 213.105469 236.335938 L 238.050781 236.085938 C 265.273438 235.816406 281.125 222.804688 280.914062 201.683594 L 280.910156 201.332031 " fill-opacity="1" fill-rule="nonzero"/></g><g clip-path="url(#7770488360)"><g clip-path="url(#eafdeaf75d)"><g clip-path="url(#3914b8e46f)"><path fill="#ffffff" d="M 105.152344 262.472656 L 93.816406 210.65625 L 215.066406 184.132812 L 226.398438 235.953125 Z M 105.152344 262.472656 " fill-opacity="1" fill-rule="nonzero"/></g></g></g><g fill="#000000" fill-opacity="1"><g transform="translate(109.758856, 227.297004)"><g><path d="M 5.234375 -9.515625 L 3.75 -5.59375 C 4.53125 -5.570312 5.195312 -5.4375 5.75 -5.1875 C 6.300781 -4.9375 6.734375 -4.664062 7.046875 -4.375 Z M 7.453125 -10.75 L 7.453125 -10.59375 C 7.128906 -10.507812 6.96875 -10.316406 6.96875 -10.015625 C 6.96875 -9.972656 6.972656 -9.90625 6.984375 -9.8125 C 7.003906 -9.726562 7.046875 -9.597656 7.109375 -9.421875 L 9.90625 -1.34375 C 10.019531 -1.019531 10.132812 -0.757812 10.25 -0.5625 C 10.375 -0.363281 10.59375 -0.222656 10.90625 -0.140625 L 10.90625 0 L 7.203125 0 L 7.203125 -0.140625 C 7.441406 -0.203125 7.632812 -0.320312 7.78125 -0.5 C 7.925781 -0.675781 8 -0.941406 8 -1.296875 C 8 -1.609375 7.910156 -1.96875 7.734375 -2.375 C 7.566406 -2.78125 7.300781 -3.164062 6.9375 -3.53125 C 6.570312 -3.894531 6.109375 -4.207031 5.546875 -4.46875 C 4.984375 -4.726562 4.316406 -4.863281 3.546875 -4.875 L 2.5625 -2.1875 C 2.4375 -1.8125 2.359375 -1.535156 2.328125 -1.359375 C 2.304688 -1.191406 2.296875 -1.082031 2.296875 -1.03125 C 2.296875 -0.757812 2.390625 -0.546875 2.578125 -0.390625 C 2.765625 -0.242188 2.972656 -0.160156 3.203125 -0.140625 L 3.203125 0 L -0.125 0 L -0.125 -0.140625 C 0 -0.179688 0.117188 -0.222656 0.234375 -0.265625 C 0.359375 -0.304688 0.476562 -0.394531 0.59375 -0.53125 C 0.71875 -0.675781 0.847656 -0.878906 0.984375 -1.140625 C 1.128906 -1.398438 1.289062 -1.765625 1.46875 -2.234375 L 4.078125 -9.125 C 4.148438 -9.3125 4.207031 -9.476562 4.25 -9.625 C 4.300781 -9.769531 4.328125 -9.921875 4.328125 -10.078125 C 4.328125 -10.222656 4.269531 -10.335938 4.15625 -10.421875 C 4.050781 -10.515625 3.941406 -10.570312 3.828125 -10.59375 L 3.828125 -10.75 Z M 7.453125 -10.75 "/></g></g></g><g fill="#000000" fill-opacity="1"><g transform="translate(120.204913, 227.297004)"><g><path d="M 3.34375 -8.046875 L 3.34375 -7.90625 C 2.945312 -7.863281 2.75 -7.664062 2.75 -7.3125 C 2.75 -7.238281 2.757812 -7.140625 2.78125 -7.015625 C 2.800781 -6.890625 2.859375 -6.679688 2.953125 -6.390625 L 4.640625 -1.328125 L 6.65625 -6.703125 C 6.75 -6.929688 6.804688 -7.085938 6.828125 -7.171875 C 6.847656 -7.265625 6.859375 -7.347656 6.859375 -7.421875 C 6.859375 -7.710938 6.691406 -7.875 6.359375 -7.90625 L 6.296875 -7.90625 L 6.296875 -8.046875 L 8.703125 -8.046875 L 8.703125 -7.90625 C 8.546875 -7.882812 8.410156 -7.832031 8.296875 -7.75 C 8.179688 -7.675781 8.082031 -7.578125 8 -7.453125 C 7.925781 -7.335938 7.859375 -7.210938 7.796875 -7.078125 C 7.734375 -6.941406 7.675781 -6.804688 7.625 -6.671875 L 5.453125 -1.3125 C 5.378906 -1.125 5.320312 -0.972656 5.28125 -0.859375 C 5.25 -0.742188 5.234375 -0.632812 5.234375 -0.53125 C 5.234375 -0.414062 5.265625 -0.332031 5.328125 -0.28125 C 5.390625 -0.226562 5.476562 -0.179688 5.59375 -0.140625 L 5.59375 0 L 2.890625 0 L 2.890625 -0.140625 C 3.128906 -0.179688 3.25 -0.296875 3.25 -0.484375 C 3.25 -0.578125 3.234375 -0.675781 3.203125 -0.78125 C 3.171875 -0.894531 3.132812 -1.003906 3.09375 -1.109375 L 1 -6.890625 C 0.894531 -7.160156 0.785156 -7.390625 0.671875 -7.578125 C 0.554688 -7.773438 0.367188 -7.882812 0.109375 -7.90625 L 0.109375 -8.046875 Z M 3.34375 -8.046875 "/></g></g></g><g fill="#000000" fill-opacity="1"><g transform="translate(128.692331, 227.297004)"><g><path d="M 3.125 -8.046875 L 3.125 -1.828125 C 3.125 -1.578125 3.132812 -1.351562 3.15625 -1.15625 C 3.1875 -0.957031 3.234375 -0.785156 3.296875 -0.640625 C 3.367188 -0.492188 3.46875 -0.375 3.59375 -0.28125 C 3.71875 -0.195312 3.882812 -0.148438 4.09375 -0.140625 L 4.09375 0 L 0.46875 0 L 0.46875 -0.140625 C 0.882812 -0.191406 1.148438 -0.367188 1.265625 -0.671875 C 1.390625 -0.972656 1.453125 -1.363281 1.453125 -1.84375 L 1.453125 -6 C 1.453125 -6.445312 1.390625 -6.828125 1.265625 -7.140625 C 1.148438 -7.460938 0.882812 -7.644531 0.46875 -7.6875 L 0.46875 -7.84375 Z M 1.171875 -10.265625 C 1.171875 -10.617188 1.269531 -10.910156 1.46875 -11.140625 C 1.664062 -11.367188 1.9375 -11.484375 2.28125 -11.484375 C 2.601562 -11.484375 2.863281 -11.363281 3.0625 -11.125 C 3.269531 -10.894531 3.375 -10.625 3.375 -10.3125 C 3.375 -10.007812 3.273438 -9.726562 3.078125 -9.46875 C 2.890625 -9.21875 2.628906 -9.09375 2.296875 -9.09375 C 1.972656 -9.09375 1.703125 -9.207031 1.484375 -9.4375 C 1.273438 -9.664062 1.171875 -9.941406 1.171875 -10.265625 Z M 1.171875 -10.265625 "/></g></g></g><g fill="#000000" fill-opacity="1"><g transform="translate(132.936033, 227.297004)"><g><path d="M 3.1875 -6.328125 C 3.195312 -6.328125 3.289062 -6.425781 3.46875 -6.625 C 3.65625 -6.820312 3.898438 -7.035156 4.203125 -7.265625 C 4.515625 -7.503906 4.867188 -7.722656 5.265625 -7.921875 C 5.660156 -8.117188 6.070312 -8.21875 6.5 -8.21875 C 7.1875 -8.21875 7.707031 -8.015625 8.0625 -7.609375 C 8.414062 -7.210938 8.59375 -6.535156 8.59375 -5.578125 L 8.59375 -1.84375 C 8.59375 -1.613281 8.601562 -1.394531 8.625 -1.1875 C 8.644531 -0.988281 8.6875 -0.816406 8.75 -0.671875 C 8.820312 -0.523438 8.921875 -0.398438 9.046875 -0.296875 C 9.171875 -0.203125 9.34375 -0.148438 9.5625 -0.140625 L 9.5625 0 L 5.9375 0 L 5.9375 -0.140625 C 6.363281 -0.191406 6.632812 -0.367188 6.75 -0.671875 C 6.863281 -0.984375 6.921875 -1.375 6.921875 -1.84375 L 6.921875 -4.953125 C 6.921875 -5.722656 6.8125 -6.257812 6.59375 -6.5625 C 6.382812 -6.875 6.070312 -7.03125 5.65625 -7.03125 C 5.582031 -7.03125 5.484375 -7.019531 5.359375 -7 C 5.234375 -6.988281 5.082031 -6.945312 4.90625 -6.875 C 4.738281 -6.800781 4.554688 -6.691406 4.359375 -6.546875 C 4.160156 -6.398438 3.960938 -6.207031 3.765625 -5.96875 C 3.515625 -5.664062 3.351562 -5.34375 3.28125 -5 C 3.21875 -4.664062 3.1875 -4.25 3.1875 -3.75 L 3.1875 -1.859375 C 3.1875 -1.628906 3.195312 -1.414062 3.21875 -1.21875 C 3.238281 -1.03125 3.285156 -0.859375 3.359375 -0.703125 C 3.429688 -0.546875 3.53125 -0.414062 3.65625 -0.3125 C 3.78125 -0.21875 3.941406 -0.15625 4.140625 -0.125 L 4.140625 0 L 0.53125 0 L 0.53125 -0.140625 C 0.945312 -0.191406 1.210938 -0.375 1.328125 -0.6875 C 1.453125 -1 1.515625 -1.382812 1.515625 -1.84375 L 1.515625 -6.015625 C 1.515625 -6.242188 1.503906 -6.453125 1.484375 -6.640625 C 1.460938 -6.835938 1.414062 -7.007812 1.34375 -7.15625 C 1.28125 -7.300781 1.1875 -7.421875 1.0625 -7.515625 C 0.9375 -7.609375 0.78125 -7.664062 0.59375 -7.6875 L 0.59375 -7.84375 L 2.78125 -8.046875 C 2.894531 -7.835938 2.984375 -7.597656 3.046875 -7.328125 C 3.117188 -7.066406 3.164062 -6.734375 3.1875 -6.328125 Z M 3.1875 -6.328125 "/></g></g></g><g fill="#000000" fill-opacity="1"><g transform="translate(142.729211, 227.297004)"><g><path d="M 6.265625 -4.6875 C 5.890625 -4.601562 5.472656 -4.488281 5.015625 -4.34375 C 4.566406 -4.195312 4.148438 -4.015625 3.765625 -3.796875 C 3.390625 -3.578125 3.070312 -3.316406 2.8125 -3.015625 C 2.5625 -2.710938 2.4375 -2.359375 2.4375 -1.953125 C 2.4375 -1.578125 2.566406 -1.28125 2.828125 -1.0625 C 3.085938 -0.851562 3.394531 -0.75 3.75 -0.75 C 4.238281 -0.75 4.644531 -0.847656 4.96875 -1.046875 C 5.289062 -1.242188 5.550781 -1.492188 5.75 -1.796875 C 5.945312 -2.097656 6.082031 -2.4375 6.15625 -2.8125 C 6.226562 -3.195312 6.265625 -3.570312 6.265625 -3.9375 Z M 2.59375 -7.71875 C 2.832031 -7.800781 3.054688 -7.875 3.265625 -7.9375 C 3.484375 -8 3.695312 -8.046875 3.90625 -8.078125 C 4.113281 -8.117188 4.328125 -8.148438 4.546875 -8.171875 C 4.765625 -8.203125 5.007812 -8.21875 5.28125 -8.21875 C 5.726562 -8.21875 6.125 -8.175781 6.46875 -8.09375 C 6.8125 -8.019531 7.097656 -7.882812 7.328125 -7.6875 C 7.566406 -7.488281 7.742188 -7.21875 7.859375 -6.875 C 7.972656 -6.53125 8.03125 -6.085938 8.03125 -5.546875 L 8.03125 -2.21875 C 8.03125 -1.957031 8.039062 -1.710938 8.0625 -1.484375 C 8.09375 -1.253906 8.148438 -1.050781 8.234375 -0.875 C 8.316406 -0.695312 8.429688 -0.546875 8.578125 -0.421875 C 8.734375 -0.296875 8.9375 -0.203125 9.1875 -0.140625 L 9.1875 0 L 6.953125 0 C 6.785156 -0.21875 6.65625 -0.445312 6.5625 -0.6875 C 6.476562 -0.925781 6.425781 -1.1875 6.40625 -1.46875 C 6.238281 -1.175781 6.035156 -0.925781 5.796875 -0.71875 C 5.554688 -0.507812 5.296875 -0.335938 5.015625 -0.203125 C 4.734375 -0.078125 4.429688 0.0078125 4.109375 0.0625 C 3.785156 0.125 3.46875 0.15625 3.15625 0.15625 C 2.78125 0.15625 2.4375 0.113281 2.125 0.03125 C 1.8125 -0.0390625 1.539062 -0.160156 1.3125 -0.328125 C 1.082031 -0.492188 0.898438 -0.695312 0.765625 -0.9375 C 0.640625 -1.175781 0.578125 -1.445312 0.578125 -1.75 C 0.578125 -2.257812 0.707031 -2.695312 0.96875 -3.0625 C 1.238281 -3.4375 1.617188 -3.757812 2.109375 -4.03125 C 2.609375 -4.3125 3.207031 -4.554688 3.90625 -4.765625 C 4.613281 -4.972656 5.398438 -5.171875 6.265625 -5.359375 C 6.273438 -5.691406 6.257812 -5.976562 6.21875 -6.21875 C 6.1875 -6.46875 6.109375 -6.671875 5.984375 -6.828125 C 5.867188 -6.984375 5.703125 -7.097656 5.484375 -7.171875 C 5.265625 -7.253906 4.976562 -7.296875 4.625 -7.296875 C 3.820312 -7.296875 3.117188 -7.101562 2.515625 -6.71875 C 1.910156 -6.332031 1.453125 -5.785156 1.140625 -5.078125 L 1.40625 -7.75 C 1.5 -7.6875 1.582031 -7.632812 1.65625 -7.59375 C 1.726562 -7.5625 1.804688 -7.546875 1.890625 -7.546875 C 1.984375 -7.546875 2.085938 -7.5625 2.203125 -7.59375 C 2.316406 -7.625 2.445312 -7.664062 2.59375 -7.71875 Z M 2.59375 -7.71875 "/></g></g></g><g fill="#000000" fill-opacity="1"><g transform="translate(151.54307, 227.297004)"><g><path d="M 0.796875 -6.0625 C 0.796875 -6.445312 0.890625 -6.78125 1.078125 -7.0625 C 1.273438 -7.34375 1.519531 -7.566406 1.8125 -7.734375 C 2.113281 -7.898438 2.441406 -8.019531 2.796875 -8.09375 C 3.160156 -8.175781 3.515625 -8.21875 3.859375 -8.21875 C 4.179688 -8.21875 4.476562 -8.195312 4.75 -8.15625 C 5.03125 -8.113281 5.28125 -8.066406 5.5 -8.015625 C 5.726562 -7.972656 5.921875 -7.929688 6.078125 -7.890625 C 6.242188 -7.859375 6.378906 -7.84375 6.484375 -7.84375 C 6.617188 -7.84375 6.75 -7.882812 6.875 -7.96875 L 6.984375 -5.4375 L 6.875 -5.421875 C 6.820312 -5.734375 6.695312 -6.015625 6.5 -6.265625 C 6.3125 -6.515625 6.085938 -6.722656 5.828125 -6.890625 C 5.566406 -7.066406 5.28125 -7.195312 4.96875 -7.28125 C 4.65625 -7.375 4.347656 -7.421875 4.046875 -7.421875 C 3.878906 -7.421875 3.703125 -7.40625 3.515625 -7.375 C 3.335938 -7.34375 3.171875 -7.289062 3.015625 -7.21875 C 2.859375 -7.144531 2.726562 -7.039062 2.625 -6.90625 C 2.519531 -6.769531 2.46875 -6.601562 2.46875 -6.40625 C 2.46875 -6.207031 2.523438 -6.039062 2.640625 -5.90625 C 2.765625 -5.78125 2.925781 -5.664062 3.125 -5.5625 C 3.332031 -5.457031 3.570312 -5.363281 3.84375 -5.28125 C 4.113281 -5.195312 4.390625 -5.117188 4.671875 -5.046875 C 5.035156 -4.929688 5.394531 -4.8125 5.75 -4.6875 C 6.113281 -4.570312 6.4375 -4.421875 6.71875 -4.234375 C 7 -4.054688 7.222656 -3.835938 7.390625 -3.578125 C 7.554688 -3.316406 7.640625 -2.992188 7.640625 -2.609375 C 7.640625 -2.140625 7.53125 -1.726562 7.3125 -1.375 C 7.101562 -1.03125 6.832031 -0.742188 6.5 -0.515625 C 6.164062 -0.285156 5.785156 -0.113281 5.359375 0 C 4.941406 0.101562 4.523438 0.15625 4.109375 0.15625 C 3.640625 0.15625 3.195312 0.113281 2.78125 0.03125 C 2.363281 -0.0390625 2.015625 -0.109375 1.734375 -0.171875 C 1.367188 -0.273438 1.140625 -0.328125 1.046875 -0.328125 C 0.941406 -0.328125 0.859375 -0.304688 0.796875 -0.265625 C 0.742188 -0.222656 0.691406 -0.164062 0.640625 -0.09375 L 0.5 -3.296875 L 0.640625 -3.328125 C 0.691406 -2.898438 0.8125 -2.519531 1 -2.1875 C 1.195312 -1.863281 1.4375 -1.582031 1.71875 -1.34375 C 2.007812 -1.113281 2.335938 -0.9375 2.703125 -0.8125 C 3.066406 -0.6875 3.453125 -0.625 3.859375 -0.625 C 4.085938 -0.625 4.328125 -0.65625 4.578125 -0.71875 C 4.828125 -0.78125 5.050781 -0.875 5.25 -1 C 5.457031 -1.125 5.628906 -1.28125 5.765625 -1.46875 C 5.898438 -1.664062 5.96875 -1.890625 5.96875 -2.140625 C 5.96875 -2.347656 5.90625 -2.523438 5.78125 -2.671875 C 5.664062 -2.816406 5.503906 -2.941406 5.296875 -3.046875 C 5.097656 -3.160156 4.863281 -3.257812 4.59375 -3.34375 C 4.332031 -3.425781 4.046875 -3.507812 3.734375 -3.59375 C 3.378906 -3.6875 3.023438 -3.796875 2.671875 -3.921875 C 2.328125 -4.046875 2.015625 -4.195312 1.734375 -4.375 C 1.460938 -4.5625 1.238281 -4.789062 1.0625 -5.0625 C 0.882812 -5.332031 0.796875 -5.664062 0.796875 -6.0625 Z M 0.796875 -6.0625 "/></g></g></g><g fill="#000000" fill-opacity="1"><g transform="translate(159.37761, 227.297004)"><g><path d="M 3.1875 -11.171875 L 3.1875 -6.375 C 3.4375 -6.613281 3.691406 -6.84375 3.953125 -7.0625 C 4.222656 -7.28125 4.503906 -7.476562 4.796875 -7.65625 C 5.085938 -7.832031 5.390625 -7.96875 5.703125 -8.0625 C 6.023438 -8.164062 6.351562 -8.21875 6.6875 -8.21875 C 6.925781 -8.21875 7.160156 -8.179688 7.390625 -8.109375 C 7.617188 -8.046875 7.820312 -7.925781 8 -7.75 C 8.1875 -7.570312 8.332031 -7.316406 8.4375 -6.984375 C 8.539062 -6.660156 8.59375 -6.242188 8.59375 -5.734375 L 8.59375 -1.84375 C 8.59375 -1.613281 8.601562 -1.394531 8.625 -1.1875 C 8.644531 -0.988281 8.6875 -0.8125 8.75 -0.65625 C 8.820312 -0.507812 8.925781 -0.382812 9.0625 -0.28125 C 9.207031 -0.1875 9.382812 -0.132812 9.59375 -0.125 L 9.59375 0 L 5.96875 0 L 5.96875 -0.125 C 6.375 -0.1875 6.632812 -0.375 6.75 -0.6875 C 6.863281 -1.007812 6.921875 -1.398438 6.921875 -1.859375 L 6.921875 -5.140625 C 6.921875 -5.566406 6.882812 -5.90625 6.8125 -6.15625 C 6.738281 -6.40625 6.644531 -6.59375 6.53125 -6.71875 C 6.425781 -6.851562 6.300781 -6.9375 6.15625 -6.96875 C 6.007812 -7.007812 5.863281 -7.03125 5.71875 -7.03125 C 5.445312 -7.03125 5.132812 -6.945312 4.78125 -6.78125 C 4.425781 -6.625 4.097656 -6.375 3.796875 -6.03125 C 3.546875 -5.71875 3.378906 -5.394531 3.296875 -5.0625 C 3.222656 -4.738281 3.1875 -4.351562 3.1875 -3.90625 L 3.1875 -1.84375 C 3.1875 -1.382812 3.242188 -1 3.359375 -0.6875 C 3.472656 -0.375 3.734375 -0.1875 4.140625 -0.125 L 4.140625 0 L 0.53125 0 L 0.53125 -0.140625 C 0.9375 -0.203125 1.203125 -0.382812 1.328125 -0.6875 C 1.453125 -1 1.515625 -1.390625 1.515625 -1.859375 L 1.515625 -8.921875 C 1.515625 -9.398438 1.453125 -9.796875 1.328125 -10.109375 C 1.210938 -10.421875 0.945312 -10.582031 0.53125 -10.59375 L 0.53125 -10.75 Z M 3.1875 -11.171875 "/></g></g></g><g fill="#000000" fill-opacity="1"><g transform="translate(169.17079, 227.297004)"><g/></g></g><g fill="#000000" fill-opacity="1"><g transform="translate(174.067368, 227.297004)"><g><path d="M 8.4375 -3.46875 C 8.4375 -3.84375 8.363281 -4.191406 8.21875 -4.515625 C 8.070312 -4.847656 7.875 -5.148438 7.625 -5.421875 C 7.382812 -5.691406 7.113281 -5.925781 6.8125 -6.125 C 6.507812 -6.332031 6.203125 -6.5 5.890625 -6.625 L 3.421875 -5.703125 L 3.421875 -1.921875 C 3.421875 -1.671875 3.4375 -1.46875 3.46875 -1.3125 C 3.507812 -1.164062 3.570312 -1.046875 3.65625 -0.953125 C 3.75 -0.867188 3.878906 -0.8125 4.046875 -0.78125 C 4.210938 -0.757812 4.429688 -0.75 4.703125 -0.75 C 5.179688 -0.75 5.644531 -0.789062 6.09375 -0.875 C 6.550781 -0.96875 6.953125 -1.117188 7.296875 -1.328125 C 7.648438 -1.546875 7.925781 -1.820312 8.125 -2.15625 C 8.332031 -2.5 8.4375 -2.9375 8.4375 -3.46875 Z M 5.15625 -10 C 4.9375 -10 4.753906 -9.988281 4.609375 -9.96875 C 4.460938 -9.957031 4.332031 -9.941406 4.21875 -9.921875 C 4.050781 -9.898438 3.914062 -9.867188 3.8125 -9.828125 C 3.707031 -9.796875 3.628906 -9.734375 3.578125 -9.640625 C 3.523438 -9.546875 3.484375 -9.414062 3.453125 -9.25 C 3.429688 -9.082031 3.421875 -8.859375 3.421875 -8.578125 L 3.421875 -6.46875 C 3.960938 -6.613281 4.460938 -6.78125 4.921875 -6.96875 C 5.378906 -7.15625 5.78125 -7.359375 6.125 -7.578125 C 6.46875 -7.796875 6.738281 -8.023438 6.9375 -8.265625 C 7.144531 -8.515625 7.25 -8.773438 7.25 -9.046875 C 7.25 -9.242188 7.191406 -9.40625 7.078125 -9.53125 C 6.972656 -9.65625 6.828125 -9.75 6.640625 -9.8125 C 6.453125 -9.875 6.226562 -9.921875 5.96875 -9.953125 C 5.707031 -9.984375 5.4375 -10 5.15625 -10 Z M 6.734375 -10.75 C 7.066406 -10.75 7.378906 -10.726562 7.671875 -10.6875 C 7.972656 -10.644531 8.234375 -10.570312 8.453125 -10.46875 C 8.679688 -10.363281 8.859375 -10.222656 8.984375 -10.046875 C 9.117188 -9.867188 9.1875 -9.640625 9.1875 -9.359375 C 9.1875 -9.128906 9.148438 -8.921875 9.078125 -8.734375 C 9.003906 -8.546875 8.875 -8.363281 8.6875 -8.1875 C 8.5 -8.007812 8.25 -7.820312 7.9375 -7.625 C 7.625 -7.425781 7.234375 -7.203125 6.765625 -6.953125 C 7.273438 -6.773438 7.742188 -6.566406 8.171875 -6.328125 C 8.609375 -6.085938 8.984375 -5.8125 9.296875 -5.5 C 9.617188 -5.195312 9.863281 -4.851562 10.03125 -4.46875 C 10.207031 -4.09375 10.296875 -3.679688 10.296875 -3.234375 C 10.296875 -2.585938 10.160156 -2.054688 9.890625 -1.640625 C 9.628906 -1.234375 9.253906 -0.90625 8.765625 -0.65625 C 8.285156 -0.414062 7.710938 -0.242188 7.046875 -0.140625 C 6.378906 -0.046875 5.640625 0 4.828125 0 L 0.578125 0 L 0.578125 -0.140625 C 0.816406 -0.179688 1.003906 -0.25 1.140625 -0.34375 C 1.285156 -0.445312 1.390625 -0.578125 1.453125 -0.734375 C 1.523438 -0.898438 1.570312 -1.078125 1.59375 -1.265625 C 1.613281 -1.453125 1.625 -1.648438 1.625 -1.859375 L 1.625 -8.78125 C 1.625 -9 1.613281 -9.207031 1.59375 -9.40625 C 1.570312 -9.613281 1.523438 -9.796875 1.453125 -9.953125 C 1.378906 -10.117188 1.273438 -10.257812 1.140625 -10.375 C 1.003906 -10.488281 0.816406 -10.5625 0.578125 -10.59375 L 0.578125 -10.75 Z M 6.734375 -10.75 "/></g></g></g><g fill="#000000" fill-opacity="1"><g transform="translate(184.513425, 227.297004)"><g><path d="M 5.015625 -7.421875 C 4.566406 -7.421875 4.175781 -7.335938 3.84375 -7.171875 C 3.519531 -7.003906 3.253906 -6.773438 3.046875 -6.484375 C 2.847656 -6.203125 2.695312 -5.867188 2.59375 -5.484375 C 2.5 -5.109375 2.453125 -4.710938 2.453125 -4.296875 C 2.453125 -3.878906 2.5 -3.453125 2.59375 -3.015625 C 2.695312 -2.585938 2.851562 -2.195312 3.0625 -1.84375 C 3.269531 -1.488281 3.539062 -1.195312 3.875 -0.96875 C 4.21875 -0.738281 4.628906 -0.625 5.109375 -0.625 C 5.515625 -0.625 5.875 -0.710938 6.1875 -0.890625 C 6.5 -1.078125 6.765625 -1.320312 6.984375 -1.625 C 7.203125 -1.9375 7.367188 -2.285156 7.484375 -2.671875 C 7.597656 -3.066406 7.65625 -3.476562 7.65625 -3.90625 C 7.65625 -4.269531 7.613281 -4.660156 7.53125 -5.078125 C 7.445312 -5.492188 7.300781 -5.875 7.09375 -6.21875 C 6.894531 -6.570312 6.625 -6.859375 6.28125 -7.078125 C 5.945312 -7.304688 5.523438 -7.421875 5.015625 -7.421875 Z M 0.59375 -3.96875 C 0.59375 -4.625 0.707031 -5.210938 0.9375 -5.734375 C 1.175781 -6.265625 1.5 -6.710938 1.90625 -7.078125 C 2.3125 -7.441406 2.785156 -7.722656 3.328125 -7.921875 C 3.878906 -8.117188 4.476562 -8.21875 5.125 -8.21875 C 5.75 -8.21875 6.328125 -8.125 6.859375 -7.9375 C 7.390625 -7.757812 7.847656 -7.5 8.234375 -7.15625 C 8.628906 -6.8125 8.941406 -6.382812 9.171875 -5.875 C 9.398438 -5.363281 9.515625 -4.78125 9.515625 -4.125 C 9.515625 -3.457031 9.394531 -2.851562 9.15625 -2.3125 C 8.914062 -1.78125 8.59375 -1.332031 8.1875 -0.96875 C 7.78125 -0.601562 7.296875 -0.320312 6.734375 -0.125 C 6.179688 0.0625 5.59375 0.15625 4.96875 0.15625 C 4.34375 0.15625 3.765625 0.0625 3.234375 -0.125 C 2.703125 -0.3125 2.238281 -0.582031 1.84375 -0.9375 C 1.445312 -1.289062 1.140625 -1.722656 0.921875 -2.234375 C 0.703125 -2.742188 0.59375 -3.320312 0.59375 -3.96875 Z M 0.59375 -3.96875 "/></g></g></g><g fill="#000000" fill-opacity="1"><g transform="translate(194.306605, 227.297004)"><g><path d="M 5.359375 -7.421875 C 4.878906 -7.398438 4.457031 -7.296875 4.09375 -7.109375 C 3.726562 -6.921875 3.421875 -6.671875 3.171875 -6.359375 C 2.929688 -6.046875 2.75 -5.6875 2.625 -5.28125 C 2.5 -4.875 2.4375 -4.441406 2.4375 -3.984375 C 2.4375 -3.390625 2.539062 -2.878906 2.75 -2.453125 C 2.957031 -2.035156 3.238281 -1.695312 3.59375 -1.4375 C 3.945312 -1.175781 4.347656 -0.984375 4.796875 -0.859375 C 5.242188 -0.742188 5.695312 -0.6875 6.15625 -0.6875 C 6.425781 -0.6875 6.71875 -0.722656 7.03125 -0.796875 L 7.03125 -5.78125 C 7.03125 -6.039062 7.007812 -6.273438 6.96875 -6.484375 C 6.925781 -6.703125 6.84375 -6.878906 6.71875 -7.015625 C 6.59375 -7.160156 6.421875 -7.269531 6.203125 -7.34375 C 5.984375 -7.414062 5.703125 -7.441406 5.359375 -7.421875 Z M 8.703125 -11.171875 L 8.703125 -1.828125 C 8.703125 -1.578125 8.710938 -1.351562 8.734375 -1.15625 C 8.765625 -0.957031 8.816406 -0.785156 8.890625 -0.640625 C 8.960938 -0.492188 9.0625 -0.375 9.1875 -0.28125 C 9.3125 -0.195312 9.476562 -0.148438 9.6875 -0.140625 L 9.6875 0 L 5.515625 0 C 4.597656 0 3.835938 -0.09375 3.234375 -0.28125 C 2.628906 -0.476562 2.140625 -0.78125 1.765625 -1.1875 C 1.410156 -1.550781 1.140625 -1.976562 0.953125 -2.46875 C 0.765625 -2.96875 0.671875 -3.484375 0.671875 -4.015625 C 0.671875 -4.710938 0.785156 -5.320312 1.015625 -5.84375 C 1.242188 -6.375 1.5625 -6.8125 1.96875 -7.15625 C 2.375 -7.507812 2.859375 -7.773438 3.421875 -7.953125 C 3.984375 -8.128906 4.601562 -8.21875 5.28125 -8.21875 C 5.351562 -8.21875 5.4375 -8.21875 5.53125 -8.21875 C 5.625 -8.21875 5.738281 -8.210938 5.875 -8.203125 C 6.007812 -8.191406 6.164062 -8.175781 6.34375 -8.15625 C 6.53125 -8.144531 6.757812 -8.128906 7.03125 -8.109375 L 7.03125 -8.921875 C 7.03125 -9.484375 6.953125 -9.898438 6.796875 -10.171875 C 6.648438 -10.453125 6.40625 -10.59375 6.0625 -10.59375 L 6.0625 -10.75 Z M 8.703125 -11.171875 "/></g></g></g><g fill="#000000" fill-opacity="1"><g transform="translate(204.099785, 227.297004)"><g><path d="M 5.359375 -7.421875 C 4.878906 -7.398438 4.457031 -7.296875 4.09375 -7.109375 C 3.726562 -6.921875 3.421875 -6.671875 3.171875 -6.359375 C 2.929688 -6.046875 2.75 -5.6875 2.625 -5.28125 C 2.5 -4.875 2.4375 -4.441406 2.4375 -3.984375 C 2.4375 -3.390625 2.539062 -2.878906 2.75 -2.453125 C 2.957031 -2.035156 3.238281 -1.695312 3.59375 -1.4375 C 3.945312 -1.175781 4.347656 -0.984375 4.796875 -0.859375 C 5.242188 -0.742188 5.695312 -0.6875 6.15625 -0.6875 C 6.425781 -0.6875 6.71875 -0.722656 7.03125 -0.796875 L 7.03125 -5.78125 C 7.03125 -6.039062 7.007812 -6.273438 6.96875 -6.484375 C 6.925781 -6.703125 6.84375 -6.878906 6.71875 -7.015625 C 6.59375 -7.160156 6.421875 -7.269531 6.203125 -7.34375 C 5.984375 -7.414062 5.703125 -7.441406 5.359375 -7.421875 Z M 8.703125 -11.171875 L 8.703125 -1.828125 C 8.703125 -1.578125 8.710938 -1.351562 8.734375 -1.15625 C 8.765625 -0.957031 8.816406 -0.785156 8.890625 -0.640625 C 8.960938 -0.492188 9.0625 -0.375 9.1875 -0.28125 C 9.3125 -0.195312 9.476562 -0.148438 9.6875 -0.140625 L 9.6875 0 L 5.515625 0 C 4.597656 0 3.835938 -0.09375 3.234375 -0.28125 C 2.628906 -0.476562 2.140625 -0.78125 1.765625 -1.1875 C 1.410156 -1.550781 1.140625 -1.976562 0.953125 -2.46875 C 0.765625 -2.96875 0.671875 -3.484375 0.671875 -4.015625 C 0.671875 -4.710938 0.785156 -5.320312 1.015625 -5.84375 C 1.242188 -6.375 1.5625 -6.8125 1.96875 -7.15625 C 2.375 -7.507812 2.859375 -7.773438 3.421875 -7.953125 C 3.984375 -8.128906 4.601562 -8.21875 5.28125 -8.21875 C 5.351562 -8.21875 5.4375 -8.21875 5.53125 -8.21875 C 5.625 -8.21875 5.738281 -8.210938 5.875 -8.203125 C 6.007812 -8.191406 6.164062 -8.175781 6.34375 -8.15625 C 6.53125 -8.144531 6.757812 -8.128906 7.03125 -8.109375 L 7.03125 -8.921875 C 7.03125 -9.484375 6.953125 -9.898438 6.796875 -10.171875 C 6.648438 -10.453125 6.40625 -10.59375 6.0625 -10.59375 L 6.0625 -10.75 Z M 8.703125 -11.171875 "/></g></g></g><g fill="#000000" fill-opacity="1"><g transform="translate(213.892965, 227.297004)"><g><path d="M 4.703125 -7.421875 C 4.304688 -7.398438 3.960938 -7.300781 3.671875 -7.125 C 3.390625 -6.945312 3.148438 -6.710938 2.953125 -6.421875 C 2.765625 -6.140625 2.628906 -5.816406 2.546875 -5.453125 C 2.460938 -5.097656 2.421875 -4.734375 2.421875 -4.359375 L 6.84375 -5.609375 C 6.769531 -5.828125 6.671875 -6.046875 6.546875 -6.265625 C 6.421875 -6.492188 6.269531 -6.695312 6.09375 -6.875 C 5.914062 -7.050781 5.710938 -7.191406 5.484375 -7.296875 C 5.253906 -7.398438 4.992188 -7.441406 4.703125 -7.421875 Z M 0.65625 -4.015625 C 0.65625 -4.628906 0.765625 -5.191406 0.984375 -5.703125 C 1.210938 -6.222656 1.519531 -6.664062 1.90625 -7.03125 C 2.289062 -7.40625 2.742188 -7.695312 3.265625 -7.90625 C 3.785156 -8.113281 4.347656 -8.21875 4.953125 -8.21875 C 5.390625 -8.21875 5.8125 -8.148438 6.21875 -8.015625 C 6.632812 -7.890625 7.007812 -7.703125 7.34375 -7.453125 C 7.6875 -7.210938 7.976562 -6.921875 8.21875 -6.578125 C 8.457031 -6.234375 8.632812 -5.84375 8.75 -5.40625 L 2.515625 -3.671875 C 2.578125 -3.242188 2.710938 -2.84375 2.921875 -2.46875 C 3.128906 -2.09375 3.378906 -1.769531 3.671875 -1.5 C 3.972656 -1.226562 4.316406 -1.015625 4.703125 -0.859375 C 5.085938 -0.703125 5.488281 -0.625 5.90625 -0.625 C 6.03125 -0.625 6.210938 -0.644531 6.453125 -0.6875 C 6.703125 -0.738281 6.960938 -0.835938 7.234375 -0.984375 C 7.515625 -1.128906 7.789062 -1.335938 8.0625 -1.609375 C 8.332031 -1.878906 8.5625 -2.226562 8.75 -2.65625 L 8.90625 -2.59375 L 8.046875 0.09375 C 7.972656 0.0195312 7.800781 -0.015625 7.53125 -0.015625 C 7.34375 -0.015625 7.179688 -0.00390625 7.046875 0.015625 C 6.910156 0.0351562 6.765625 0.0546875 6.609375 0.078125 C 6.453125 0.0976562 6.269531 0.117188 6.0625 0.140625 C 5.851562 0.160156 5.59375 0.171875 5.28125 0.171875 C 5.039062 0.171875 4.753906 0.140625 4.421875 0.078125 C 4.097656 0.015625 3.765625 -0.0820312 3.421875 -0.21875 C 3.078125 -0.351562 2.738281 -0.53125 2.40625 -0.75 C 2.070312 -0.96875 1.773438 -1.234375 1.515625 -1.546875 C 1.253906 -1.859375 1.046875 -2.21875 0.890625 -2.625 C 0.734375 -3.03125 0.65625 -3.492188 0.65625 -4.015625 Z M 0.65625 -4.015625 "/></g></g></g><g fill="#000000" fill-opacity="1"><g transform="translate(223.033268, 227.297004)"><g><path d="M 5.359375 -7.421875 C 4.878906 -7.398438 4.457031 -7.296875 4.09375 -7.109375 C 3.726562 -6.921875 3.421875 -6.671875 3.171875 -6.359375 C 2.929688 -6.046875 2.75 -5.6875 2.625 -5.28125 C 2.5 -4.875 2.4375 -4.441406 2.4375 -3.984375 C 2.4375 -3.390625 2.539062 -2.878906 2.75 -2.453125 C 2.957031 -2.035156 3.238281 -1.695312 3.59375 -1.4375 C 3.945312 -1.175781 4.347656 -0.984375 4.796875 -0.859375 C 5.242188 -0.742188 5.695312 -0.6875 6.15625 -0.6875 C 6.425781 -0.6875 6.71875 -0.722656 7.03125 -0.796875 L 7.03125 -5.78125 C 7.03125 -6.039062 7.007812 -6.273438 6.96875 -6.484375 C 6.925781 -6.703125 6.84375 -6.878906 6.71875 -7.015625 C 6.59375 -7.160156 6.421875 -7.269531 6.203125 -7.34375 C 5.984375 -7.414062 5.703125 -7.441406 5.359375 -7.421875 Z M 8.703125 -11.171875 L 8.703125 -1.828125 C 8.703125 -1.578125 8.710938 -1.351562 8.734375 -1.15625 C 8.765625 -0.957031 8.816406 -0.785156 8.890625 -0.640625 C 8.960938 -0.492188 9.0625 -0.375 9.1875 -0.28125 C 9.3125 -0.195312 9.476562 -0.148438 9.6875 -0.140625 L 9.6875 0 L 5.515625 0 C 4.597656 0 3.835938 -0.09375 3.234375 -0.28125 C 2.628906 -0.476562 2.140625 -0.78125 1.765625 -1.1875 C 1.410156 -1.550781 1.140625 -1.976562 0.953125 -2.46875 C 0.765625 -2.96875 0.671875 -3.484375 0.671875 -4.015625 C 0.671875 -4.710938 0.785156 -5.320312 1.015625 -5.84375 C 1.242188 -6.375 1.5625 -6.8125 1.96875 -7.15625 C 2.375 -7.507812 2.859375 -7.773438 3.421875 -7.953125 C 3.984375 -8.128906 4.601562 -8.21875 5.28125 -8.21875 C 5.351562 -8.21875 5.4375 -8.21875 5.53125 -8.21875 C 5.625 -8.21875 5.738281 -8.210938 5.875 -8.203125 C 6.007812 -8.191406 6.164062 -8.175781 6.34375 -8.15625 C 6.53125 -8.144531 6.757812 -8.128906 7.03125 -8.109375 L 7.03125 -8.921875 C 7.03125 -9.484375 6.953125 -9.898438 6.796875 -10.171875 C 6.648438 -10.453125 6.40625 -10.59375 6.0625 -10.59375 L 6.0625 -10.75 Z M 8.703125 -11.171875 "/></g></g></g><g fill="#000000" fill-opacity="1"><g transform="translate(232.826448, 227.297004)"><g><path d="M 6.265625 -4.6875 C 5.890625 -4.601562 5.472656 -4.488281 5.015625 -4.34375 C 4.566406 -4.195312 4.148438 -4.015625 3.765625 -3.796875 C 3.390625 -3.578125 3.070312 -3.316406 2.8125 -3.015625 C 2.5625 -2.710938 2.4375 -2.359375 2.4375 -1.953125 C 2.4375 -1.578125 2.566406 -1.28125 2.828125 -1.0625 C 3.085938 -0.851562 3.394531 -0.75 3.75 -0.75 C 4.238281 -0.75 4.644531 -0.847656 4.96875 -1.046875 C 5.289062 -1.242188 5.550781 -1.492188 5.75 -1.796875 C 5.945312 -2.097656 6.082031 -2.4375 6.15625 -2.8125 C 6.226562 -3.195312 6.265625 -3.570312 6.265625 -3.9375 Z M 2.59375 -7.71875 C 2.832031 -7.800781 3.054688 -7.875 3.265625 -7.9375 C 3.484375 -8 3.695312 -8.046875 3.90625 -8.078125 C 4.113281 -8.117188 4.328125 -8.148438 4.546875 -8.171875 C 4.765625 -8.203125 5.007812 -8.21875 5.28125 -8.21875 C 5.726562 -8.21875 6.125 -8.175781 6.46875 -8.09375 C 6.8125 -8.019531 7.097656 -7.882812 7.328125 -7.6875 C 7.566406 -7.488281 7.742188 -7.21875 7.859375 -6.875 C 7.972656 -6.53125 8.03125 -6.085938 8.03125 -5.546875 L 8.03125 -2.21875 C 8.03125 -1.957031 8.039062 -1.710938 8.0625 -1.484375 C 8.09375 -1.253906 8.148438 -1.050781 8.234375 -0.875 C 8.316406 -0.695312 8.429688 -0.546875 8.578125 -0.421875 C 8.734375 -0.296875 8.9375 -0.203125 9.1875 -0.140625 L 9.1875 0 L 6.953125 0 C 6.785156 -0.21875 6.65625 -0.445312 6.5625 -0.6875 C 6.476562 -0.925781 6.425781 -1.1875 6.40625 -1.46875 C 6.238281 -1.175781 6.035156 -0.925781 5.796875 -0.71875 C 5.554688 -0.507812 5.296875 -0.335938 5.015625 -0.203125 C 4.734375 -0.078125 4.429688 0.0078125 4.109375 0.0625 C 3.785156 0.125 3.46875 0.15625 3.15625 0.15625 C 2.78125 0.15625 2.4375 0.113281 2.125 0.03125 C 1.8125 -0.0390625 1.539062 -0.160156 1.3125 -0.328125 C 1.082031 -0.492188 0.898438 -0.695312 0.765625 -0.9375 C 0.640625 -1.175781 0.578125 -1.445312 0.578125 -1.75 C 0.578125 -2.257812 0.707031 -2.695312 0.96875 -3.0625 C 1.238281 -3.4375 1.617188 -3.757812 2.109375 -4.03125 C 2.609375 -4.3125 3.207031 -4.554688 3.90625 -4.765625 C 4.613281 -4.972656 5.398438 -5.171875 6.265625 -5.359375 C 6.273438 -5.691406 6.257812 -5.976562 6.21875 -6.21875 C 6.1875 -6.46875 6.109375 -6.671875 5.984375 -6.828125 C 5.867188 -6.984375 5.703125 -7.097656 5.484375 -7.171875 C 5.265625 -7.253906 4.976562 -7.296875 4.625 -7.296875 C 3.820312 -7.296875 3.117188 -7.101562 2.515625 -6.71875 C 1.910156 -6.332031 1.453125 -5.785156 1.140625 -5.078125 L 1.40625 -7.75 C 1.5 -7.6875 1.582031 -7.632812 1.65625 -7.59375 C 1.726562 -7.5625 1.804688 -7.546875 1.890625 -7.546875 C 1.984375 -7.546875 2.085938 -7.5625 2.203125 -7.59375 C 2.316406 -7.625 2.445312 -7.664062 2.59375 -7.71875 Z M 2.59375 -7.71875 "/></g></g></g></svg>